<svg xmlns="http://www.w3.org/2000/svg" width="16" height="16" viewBox="0 0 16 16">
  <rect width="100%" height="100%" fill="white"/>
  <g transform="translate(3,3)">
    
<g xmlns="http://www.w3.org/2000/svg" id="surface1">
<path style=" stroke:none;fill-rule:nonzero;fill:rgb(0%,0%,0%);fill-opacity:1;" d="M 1.691406 1.25 L 3.355469 2.914062 C 3.796875 2.378906 4.058594 1.691406 4.058594 0.941406 C 4.058594 0.65625 4.019531 0.375 3.949219 0.109375 C 3.09375 0.296875 2.324219 0.695312 1.691406 1.25 Z M 1.25 1.691406 C 0.695312 2.324219 0.296875 3.09375 0.109375 3.949219 C 0.375 4.019531 0.648438 4.058594 0.941406 4.058594 C 1.691406 4.058594 2.378906 3.792969 2.917969 3.355469 L 1.253906 1.691406 Z M 4.996094 0 C 4.851562 0 4.710938 0.00390625 4.574219 0.0195312 C 4.648438 0.316406 4.6875 0.625 4.6875 0.941406 C 4.6875 1.867188 4.351562 2.707031 3.804688 3.359375 L 5.003906 4.558594 L 8.308594 1.25 C 7.425781 0.472656 6.273438 0 5.003906 0 Z M 0.941406 4.6875 C 0.625 4.6875 0.316406 4.648438 0.0195312 4.574219 C 0.0078125 4.710938 0 4.859375 0 4.996094 C 0 6.265625 0.472656 7.421875 1.25 8.304688 L 4.558594 4.996094 L 3.359375 3.796875 C 2.703125 4.351562 1.859375 4.683594 0.941406 4.683594 Z M 9.980469 5.425781 C 9.988281 5.289062 10 5.140625 10 5.003906 C 10 3.734375 9.527344 2.578125 8.75 1.695312 L 5.441406 5.003906 L 6.640625 6.199219 C 7.292969 5.648438 8.140625 5.316406 9.058594 5.316406 C 9.375 5.316406 9.683594 5.355469 9.980469 5.433594 Z M 9.890625 6.050781 C 9.625 5.980469 9.351562 5.941406 9.058594 5.941406 C 8.308594 5.941406 7.621094 6.207031 7.082031 6.644531 L 8.746094 8.308594 C 9.300781 7.679688 9.703125 6.90625 9.886719 6.050781 Z M 6.640625 7.085938 C 6.199219 7.625 5.9375 8.316406 5.9375 9.066406 C 5.9375 9.351562 5.976562 9.632812 6.046875 9.894531 C 6.902344 9.710938 7.671875 9.3125 8.304688 8.753906 L 6.640625 7.09375 Z M 6.195312 6.640625 L 4.996094 5.441406 L 1.691406 8.75 C 2.570312 9.527344 3.726562 10 4.996094 10 C 5.140625 10 5.28125 9.996094 5.421875 9.980469 C 5.347656 9.683594 5.308594 9.375 5.308594 9.058594 C 5.308594 8.132812 5.640625 7.292969 6.191406 6.640625 Z M 6.195312 6.640625 "/>
</g>

  </g>
</svg>