<svg width="16" height="16" viewBox="0 0 16 16" fill="none" xmlns="http://www.w3.org/2000/svg">
<g clip-path="url(#clip0_3_12)">
<mask id="mask0_3_12" style="mask-type:luminance" maskUnits="userSpaceOnUse" x="3" y="3" width="10" height="10">
<path d="M13 3H3V13H13V3Z" fill="white"/>
</mask>
<g mask="url(#mask0_3_12)">
<path d="M4.68914 4.24935L6.35329 5.9135C6.79809 5.37875 7.05793 4.6891 7.05793 3.9395C7.05793 3.65465 7.01793 3.3748 6.94798 3.1099C6.09344 3.2948 5.32379 3.6946 4.68914 4.24935ZM4.24934 4.68915C3.69465 5.32385 3.29485 6.09345 3.1099 6.948C3.37475 7.01795 3.64965 7.05795 3.93949 7.05795C4.68914 7.05795 5.37879 6.7931 5.91849 6.3533L4.25434 4.68915H4.24934ZM7.99748 3C7.85253 3 7.71262 3.005 7.57267 3.02C7.64762 3.31485 7.68762 3.6247 7.68762 3.93955C7.68762 4.8641 7.35277 5.70865 6.80307 6.35835L8.00247 7.55775L11.3108 4.2494C10.4263 3.4748 9.27182 3 8.00247 3H7.99748ZM3.93955 7.6876C3.6247 7.6876 3.31485 7.6476 3.02 7.57265C3.01 7.7126 3 7.8575 3 7.99745C3 9.2668 3.47475 10.4212 4.24939 11.3058L7.55772 7.99745L6.35834 6.79805C5.70369 7.35275 4.85909 7.6826 3.93955 7.6826V7.6876ZM12.98 8.42725C12.99 8.2873 13 8.1424 13 8.00245C13 6.7331 12.5253 5.57865 11.7506 4.6941L8.44227 8.00245L9.64166 9.20185C10.2913 8.64715 11.1409 8.3173 12.0605 8.3173C12.3753 8.3173 12.6852 8.3573 12.98 8.43225V8.42725ZM12.8901 9.05195C12.6252 8.982 12.3503 8.942 12.0605 8.942C11.3108 8.942 10.6212 9.20685 10.0815 9.64665L11.7456 11.3108C12.3003 10.6811 12.7051 9.9065 12.8851 9.05195H12.8901ZM9.64166 10.0864C9.20186 10.6262 8.93702 11.3158 8.93702 12.0654C8.93702 12.3503 8.97703 12.6301 9.04698 12.895C9.90151 12.7101 10.6712 12.3103 11.3058 11.7556L9.64166 10.0915V10.0864ZM9.19687 9.64165L7.99748 8.44225L4.68914 11.7506C5.56869 12.5252 6.72814 13 7.99748 13C8.14243 13 8.28233 12.995 8.42228 12.98C8.34733 12.6852 8.30733 12.3753 8.30733 12.0605C8.30733 11.1359 8.64217 10.2914 9.19187 9.64165H9.19687Z" fill="black"/>
</g>
</g>
<defs>
<clipPath id="clip0_3_12">
<rect width="10" height="10" fill="white" transform="translate(3 3)"/>
</clipPath>
</defs>
</svg>
