<svg width="8" height="8" viewBox="0 0 8 8" fill="none" xmlns="http://www.w3.org/2000/svg">
<g clip-path="url(#clip0_14815_57877)">
<path d="M1.35131 0.99948L2.68263 2.3308C3.03847 1.903 3.24634 1.35128 3.24634 0.7516C3.24634 0.52372 3.21434 0.29984 3.15838 0.08792C2.47475 0.23584 1.85903 0.55568 1.35131 0.99948ZM0.999475 1.35132C0.555717 1.85908 0.235879 2.47476 0.0879196 3.1584C0.299798 3.21436 0.519717 3.24636 0.751596 3.24636C1.35131 3.24636 1.90303 3.03448 2.33479 2.68264L1.00347 1.35132H0.999475ZM3.99798 0C3.88202 0 3.7701 0.00400008 3.65814 0.0160001C3.7181 0.25188 3.7501 0.49976 3.7501 0.75164C3.7501 1.49128 3.48222 2.16692 3.04246 2.68668L4.00198 3.6462L6.64865 0.99952C5.94101 0.37984 5.01746 0 4.00198 0H3.99798ZM0.751636 3.75008C0.499758 3.75008 0.251879 3.71808 0.0159999 3.65812C0.00799995 3.77008 0 3.886 0 3.99796C0 5.01344 0.379798 5.937 0.999515 6.64464L3.64618 3.99796L2.68667 3.03844C2.16295 3.4822 1.48727 3.74608 0.751636 3.74608V3.75008ZM7.984 4.3418C7.992 4.22984 8 4.11392 8 4.00196C8 2.98648 7.6202 2.06292 7.00049 1.35528L4.35382 4.00196L5.31333 4.96148C5.83305 4.51772 6.51273 4.25384 7.24836 4.25384C7.50024 4.25384 7.74812 4.28584 7.984 4.3458V4.3418ZM7.91204 4.84156C7.70016 4.7856 7.48024 4.7536 7.24836 4.7536C6.64865 4.7536 6.09693 4.96548 5.66517 5.31732L6.99649 6.64864C7.44024 6.14488 7.76408 5.5252 7.90804 4.84156H7.91204ZM5.31333 5.66916C4.96149 6.10096 4.74962 6.65268 4.74962 7.25236C4.74962 7.48024 4.78162 7.70412 4.83758 7.91604C5.52121 7.76812 6.13693 7.44828 6.64465 7.00448L5.31333 5.67316V5.66916ZM4.9575 5.31332L3.99798 4.3538L1.35131 7.00048C2.05495 7.62016 2.98251 8 3.99798 8C4.11394 8 4.22586 7.996 4.33782 7.984C4.27786 7.74812 4.24586 7.50024 4.24586 7.24836C4.24586 6.50872 4.51374 5.83308 4.9535 5.31332H4.9575Z" fill="black"/>
</g>
<defs>
<clipPath id="clip0_14815_57877">
<rect width="8" height="8" fill="white"/>
</clipPath>
</defs>
</svg>
