<svg width="12" height="7" viewBox="0 0 12 7" fill="none" xmlns="http://www.w3.org/2000/svg">
<path d="M0 7L1.53604 0H3.56421C4.1541 0 4.62634 0.0861846 4.98097 0.258547C5.33883 0.427728 5.59735 0.665531 5.7564 0.971958C5.91878 1.27839 6 1.63429 6 2.03969C6 2.45463 5.92048 2.8169 5.76136 3.12656C5.60231 3.43615 5.37859 3.69469 5.09028 3.9022C4.80529 4.1065 4.47058 4.2597 4.08616 4.36185C3.70173 4.4608 3.28417 4.51027 2.83347 4.51027H2.058L1.51615 7H0ZM2.3314 3.29413H2.95277C3.25434 3.29413 3.51781 3.24622 3.74316 3.15048C3.97183 3.05473 4.14912 2.91585 4.27506 2.73396C4.4043 2.55201 4.46893 2.33333 4.46893 2.07799C4.46893 1.78432 4.38773 1.56727 4.22535 1.42682C4.06627 1.28637 3.82601 1.21615 3.50455 1.21615H2.78873L2.3314 3.29413Z" fill="black"/>
<path d="M6 7L7.53601 0H9.56424C10.1541 0 10.6264 0.0861846 10.981 0.258547C11.3388 0.427728 11.5974 0.665531 11.7564 0.971958C11.9188 1.27839 12 1.63429 12 2.03969C12 2.45463 11.9205 2.8169 11.7614 3.12656C11.6023 3.43615 11.3786 3.69469 11.0903 3.9022C10.8053 4.1065 10.4706 4.2597 10.0862 4.36185C9.70171 4.4608 9.28421 4.51027 8.83345 4.51027H8.05802L7.51613 7H6ZM8.3314 3.29413H8.95281C9.25435 3.29413 9.51783 3.24622 9.74317 3.15048C9.97184 3.05473 10.1491 2.91585 10.2751 2.73396C10.4043 2.55201 10.4689 2.33333 10.4689 2.07799C10.4689 1.78432 10.3877 1.56727 10.2253 1.42682C10.0663 1.28637 9.82602 1.21615 9.50453 1.21615H8.78874L8.3314 3.29413Z" fill="black"/>
</svg>
