<svg width="16" height="16" viewBox="0 0 16 16" fill="none" xmlns="http://www.w3.org/2000/svg">
<path d="M0 12L1.92005 4H4.45526C5.19262 4 5.78293 4.0985 6.22621 4.29548C6.67354 4.48883 6.99669 4.76061 7.1955 5.11081C7.39847 5.46101 7.5 5.86776 7.5 6.33107C7.5 6.8053 7.40059 7.21932 7.2017 7.57321C7.00288 7.92703 6.72324 8.22251 6.36285 8.45966C6.00662 8.69315 5.58823 8.86822 5.1077 8.98497C4.62717 9.09805 4.10522 9.15459 3.54183 9.15459H2.57249L1.89519 12H0ZM2.91425 7.76472H3.69097C4.06793 7.76472 4.39726 7.70997 4.67895 7.60055C4.96478 7.49112 5.1864 7.3324 5.34383 7.12453C5.50538 6.91659 5.58616 6.66667 5.58616 6.37484C5.58616 6.03922 5.48466 5.79116 5.28169 5.63065C5.08284 5.47013 4.78251 5.38988 4.38069 5.38988H3.48591L2.91425 7.76472Z" fill="black"/>
<path d="M7.5 12L9.42002 4H11.9553C12.6926 4 13.283 4.0985 13.7262 4.29548C14.1735 4.48883 14.4967 4.76061 14.6955 5.11081C14.8985 5.46101 15 5.86776 15 6.33107C15 6.8053 14.9006 7.21932 14.7018 7.57321C14.5029 7.92703 14.2232 8.22251 13.8629 8.45966C13.5066 8.69315 13.0882 8.86822 12.6077 8.98497C12.1271 9.09805 11.6053 9.15459 11.0418 9.15459H10.0725L9.39517 12H7.5ZM10.4142 7.76472H11.191C11.5679 7.76472 11.8973 7.70997 12.179 7.60055C12.4648 7.49112 12.6864 7.3324 12.8439 7.12453C13.0054 6.91659 13.0862 6.66667 13.0862 6.37484C13.0862 6.03922 12.9846 5.79116 12.7817 5.63065C12.5829 5.47013 12.2825 5.38988 11.8807 5.38988H10.9859L10.4142 7.76472Z" fill="black"/>
</svg>
