<svg width="16" height="16" viewBox="0 0 16 16" fill="none" xmlns="http://www.w3.org/2000/svg">
<path d="M0 12.5L1.97491 3.5H4.58255C5.34098 3.5 5.94815 3.61081 6.4041 3.83242C6.86421 4.04994 7.1966 4.35568 7.40109 4.74966C7.60986 5.14364 7.71429 5.60124 7.71429 6.12246C7.71429 6.65596 7.61204 7.12173 7.40746 7.51986C7.20297 7.9179 6.91533 8.25032 6.54465 8.51711C6.17823 8.77979 5.74789 8.97675 5.25364 9.10809C4.75937 9.23531 4.22251 9.29892 3.64303 9.29892H2.64599L1.94934 12.5H0ZM2.99751 7.73531H3.79642C4.18416 7.73531 4.5229 7.67372 4.81263 7.55061C5.10664 7.42751 5.33459 7.24895 5.49651 7.0151C5.66267 6.78116 5.74576 6.5 5.74576 6.1717C5.74576 5.79412 5.64137 5.51506 5.43259 5.33448C5.22807 5.1539 4.91915 5.06362 4.50585 5.06362H3.58551L2.99751 7.73531Z" fill="black"/>
<path d="M7.71429 12.5L9.68916 3.5H12.2969C13.0553 3.5 13.6625 3.61081 14.1184 3.83242C14.5785 4.04994 14.9109 4.35568 15.1154 4.74966C15.3241 5.14364 15.4286 5.60124 15.4286 6.12246C15.4286 6.65596 15.3263 7.12173 15.1218 7.51986C14.9173 7.9179 14.6296 8.25032 14.2589 8.51711C13.8925 8.77979 13.4622 8.97675 12.9679 9.10809C12.4736 9.23531 11.9368 9.29892 11.3573 9.29892H10.3603L9.6636 12.5H7.71429ZM10.7118 7.73531H11.5108C11.8985 7.73531 12.2372 7.67372 12.5269 7.55061C12.8209 7.42751 13.0489 7.24895 13.2108 7.0151C13.377 6.78116 13.4601 6.5 13.4601 6.1717C13.4601 5.79412 13.3556 5.51506 13.1469 5.33448C12.9424 5.1539 12.6335 5.06362 12.2201 5.06362H11.2998L10.7118 7.73531Z" fill="black"/>
</svg>
